<svg width="163" height="24" fill="none" xmlns="http://www.w3.org/2000/svg"><path d="M61.026 23h-3.56V.5h3.56V23ZM49.791 23h3.56V7.15h-3.56V23ZM50.084 1.672c-.342.361-.513.815-.513 1.362 0 .537.171.987.513 1.348.351.351.85.527 1.494.527.645 0 1.143-.176 1.494-.527.352-.361.528-.81.528-1.348 0-.547-.176-1-.528-1.362-.351-.361-.85-.542-1.494-.542s-1.143.18-1.494.542ZM37.12 13.962h8.584v-2.96H37.12V4.66h9.844V1.672h-13.55V23h3.706v-9.038ZM68.365 8.806l-.102-1.656h-3.355V23h3.56V11.516c.596-1.162 1.606-1.744 3.032-1.744 1.856 0 2.808.933 2.856 2.798V23h3.56l-.015-10.87c.205-.702.562-1.269 1.07-1.698.517-.44 1.181-.66 1.992-.66 1.016 0 1.743.235 2.183.704.439.468.659 1.206.659 2.211V23h3.56V12.585c-.02-1.885-.46-3.31-1.32-4.277-.849-.967-2.148-1.45-3.896-1.45-2.09 0-3.71.81-4.863 2.431-.781-1.621-2.231-2.432-4.35-2.432-1.934 0-3.458.65-4.57 1.949Z" fill="#fff"/><path fill-rule="evenodd" clip-rule="evenodd" d="M90.353 14.929c0-1.553.307-2.95.922-4.19.616-1.25 1.48-2.207 2.593-2.87 1.113-.675 2.393-1.012 3.838-1.012 2.139 0 3.872.689 5.2 2.066 1.338 1.377 2.061 3.203 2.168 5.478l.015.835c0 1.563-.303 2.96-.908 4.19-.596 1.23-1.455 2.182-2.578 2.856-1.114.674-2.403 1.011-3.868 1.011-2.236 0-4.028-.742-5.376-2.227-1.337-1.494-2.006-3.481-2.006-5.961v-.176Zm3.56.307c0 1.631.336 2.91 1.01 3.838.674.918 1.611 1.377 2.812 1.377 1.201 0 2.134-.469 2.798-1.406.674-.938 1.011-2.31 1.011-4.116 0-1.602-.347-2.871-1.04-3.809-.684-.937-1.616-1.406-2.798-1.406-1.162 0-2.085.464-2.769 1.391-.683.918-1.025 2.295-1.025 4.131Z" fill="#fff"/><path d="M112.56 7.15V3.298H109V7.15h-2.607v2.637H109v8.98c0 3.017 1.367 4.526 4.102 4.526.752 0 1.533-.112 2.343-.337v-2.754c-.42.098-.835.147-1.245.147-.615 0-1.045-.132-1.289-.396-.234-.273-.351-.713-.351-1.318V9.787h2.797V7.15h-2.797Z" fill="#fff"/><path fill-rule="evenodd" clip-rule="evenodd" d="M125.069 23.293c-2.256 0-4.087-.708-5.493-2.124-1.396-1.426-2.095-3.32-2.095-5.684v-.44c0-1.581.303-2.992.909-4.232.615-1.25 1.474-2.222 2.578-2.916 1.103-.693 2.334-1.04 3.691-1.04 2.158 0 3.823.689 4.995 2.066 1.182 1.377 1.773 3.325 1.773 5.845v1.435H121.07c.108 1.309.542 2.344 1.304 3.106.772.761 1.738 1.142 2.9 1.142 1.631 0 2.959-.659 3.985-1.977l1.919 1.83c-.635.948-1.485 1.685-2.549 2.213-1.055.517-2.241.776-3.56.776Zm-.424-13.58c-.977 0-1.768.343-2.374 1.026-.595.684-.976 1.636-1.142 2.857h6.782v-.264c-.078-1.191-.395-2.09-.952-2.695-.557-.616-1.328-.923-2.314-.923Z" fill="#fff"/><path d="m137.77 17.83 1.582-1.627L144.054 23h4.116l-6.519-9.243 5.889-6.607h-4.277l-4.38 4.937-1.113 1.392V.5h-3.56V23h3.56v-5.17Z" fill="#fff"/><path fill-rule="evenodd" clip-rule="evenodd" d="M159.347 23c-.157-.303-.293-.796-.41-1.48-1.133 1.182-2.52 1.773-4.161 1.773-1.591 0-2.89-.454-3.896-1.362-1.006-.909-1.509-2.032-1.509-3.37 0-1.689.625-2.983 1.875-3.881 1.26-.909 3.057-1.363 5.391-1.363h2.182v-1.04c0-.82-.229-1.474-.688-1.962-.459-.499-1.157-.748-2.095-.748-.81 0-1.474.205-1.992.616-.518.4-.776.913-.776 1.538h-3.56c0-.87.288-1.68.864-2.432.576-.762 1.358-1.357 2.344-1.787.996-.43 2.105-.645 3.325-.645 1.856 0 3.335.47 4.439 1.407 1.103.927 1.67 2.236 1.699 3.926v7.148c0 1.426.2 2.563.6 3.413V23h-3.632Zm-3.911-2.564c.703 0 1.362-.17 1.977-.512.625-.342 1.094-.801 1.406-1.377v-2.988H156.9c-1.318 0-2.309.23-2.973.688-.664.46-.996 1.108-.996 1.948 0 .684.224 1.23.673 1.64.459.401 1.07.601 1.832.601ZM3.18 1A3.18 3.18 0 0 0 0 4.18v15.64A3.18 3.18 0 0 0 3.18 23h15.64A3.18 3.18 0 0 0 22 19.82V4.18A3.18 3.18 0 0 0 18.82 1H3.18Zm0 2A1.18 1.18 0 0 0 2 4.18V6h3V3H3.18ZM2 11V8h3v3H2Zm5 0V3h8v8H7Zm10-3v3h3V8h-3Zm0-2V3h1.82c.652 0 1.18.528 1.18 1.18V6h-3Zm3 7v3h-3v-3h3Zm-3 5h3v1.82A1.18 1.18 0 0 1 18.82 21H17v-3Zm-2-5v8H7v-8h8ZM5 18H2v1.82c0 .652.528 1.18 1.18 1.18H5v-3Zm0-2v-3H2v3h3Z" fill="#fff"/></svg>