<svg width="24" height="24" fill="none" xmlns="http://www.w3.org/2000/svg"><path fill-rule="evenodd" clip-rule="evenodd" d="M0 3.47v17.06A3.47 3.47 0 0 0 3.47 24h17.06A3.47 3.47 0 0 0 24 20.53V3.47A3.47 3.47 0 0 0 20.53 0H3.47A3.47 3.47 0 0 0 0 3.47Zm2.182 0c0-.712.576-1.288 1.287-1.288h1.986v3.273H2.182V3.469Zm0 4.166h3.273v3.273H2.182V7.636Zm19.636-2.181V3.469c0-.71-.576-1.287-1.287-1.287h-1.985v3.273h3.272Zm-3.273 2.181h3.273v3.273h-3.273V7.636Zm-2.181-5.454H7.636v8.727h8.728V2.182Zm5.454 10.909v3.273h-3.273V13.09h3.273Zm0 5.455h-3.273v3.272h1.986c.71 0 1.287-.576 1.287-1.287v-1.985Zm-5.454-5.455v8.727H7.636v-8.727h8.728ZM2.182 18.546v1.985c0 .71.576 1.287 1.287 1.287h1.986v-3.273H2.182Zm3.273-2.182H2.182V13.09h3.273v3.273Z" fill="#fff"/></svg>