<svg aria-hidden="true" style="width:0;height:0;position:absolute;overflow:hidden" xmlns="http://www.w3.org/2000/svg"><defs><symbol id="search" viewBox="0 0 32 32"><path fill="none" stroke="#fff" style="stroke:var(--color1,#fff)" stroke-linejoin="round" stroke-linecap="round" stroke-width="2.667" d="M14.667 25.333c5.891 0 10.667-4.776 10.667-10.667S20.558 3.999 14.667 3.999 4 8.775 4 14.666s4.776 10.667 10.667 10.667zM28 28.001l-5.8-5.8"/></symbol><symbol id="three_dots" viewBox="0 0 107 32"><path d="M17.25 5.333c2.833 0 5.021.813 6.562 2.438 1.542 1.583 2.313 3.583 2.313 6 0 2.375-.771 4.354-2.313 5.938-1.542 1.542-3.729 2.312-6.562 2.312-2.708 0-4.854-.771-6.438-2.312s-2.375-3.521-2.375-5.938.771-4.417 2.312-6c1.542-1.625 3.708-2.438 6.5-2.438zm35.75 0c2.833 0 5.021.813 6.562 2.438 1.542 1.583 2.313 3.583 2.313 6 0 2.375-.771 4.354-2.313 5.938-1.542 1.542-3.729 2.312-6.562 2.312-2.708 0-4.854-.771-6.438-2.312s-2.375-3.521-2.375-5.938.771-4.417 2.313-6c1.542-1.625 3.708-2.438 6.5-2.438zm35.75 0c2.833 0 5.021.813 6.563 2.438 1.542 1.583 2.312 3.583 2.312 6 0 2.375-.771 4.354-2.312 5.938-1.542 1.542-3.729 2.312-6.563 2.312-2.708 0-4.854-.771-6.437-2.312s-2.375-3.521-2.375-5.938.771-4.417 2.313-6c1.542-1.625 3.708-2.438 6.5-2.438z"/></symbol><symbol id="footer_heart" viewBox="0 0 32 32"><path fill="#ff6b08" style="fill:var(--color2,#ff6b08)" d="m16 32-2.24-2.435C5.44 21.565 0 16.174 0 9.565 0 4.174 3.84 0 8.8 0c2.72 0 5.44 1.391 7.2 3.652C17.76 1.391 20.48 0 23.2 0 28.16 0 32 4.174 32 9.565c0 6.609-5.44 12-13.76 20L16 32z"/></symbol><symbol id="arrow-left" viewBox="0 0 32 32"><path stroke-linejoin="round" stroke-linecap="round" stroke-width="2.667" d="M25.333 16H6.666M16 25.334l-9.333-9.333L16 6.668"/></symbol><symbol id="arrow-right" viewBox="0 0 32 32"><path stroke-linejoin="round" stroke-linecap="round" stroke-width="2.667" d="M6.667 16h18.667M16 25.334l9.333-9.333L16 6.668"/></symbol><symbol id="close" viewBox="0 0 32 32"><path stroke-width="2.133" d="m8.533 8.533 14.933 14.933m-14.933.001L23.466 8.534"/></symbol><symbol id="film" viewBox="0 0 32 32"><path fill="none" stroke="#fff" style="stroke:var(--color1,#fff)" stroke-linejoin="round" stroke-linecap="round" stroke-width="2.667" d="M26.427 2.667H5.574a2.907 2.907 0 0 0-2.907 2.907v20.853a2.907 2.907 0 0 0 2.907 2.907h20.853a2.907 2.907 0 0 0 2.907-2.907V5.574a2.907 2.907 0 0 0-2.907-2.907zm-17.094 0v26.667M22.667 2.667v26.667M2.667 16h26.667M2.667 9.333h6.667M2.667 22.667h6.667m13.333 0h6.667M22.667 9.333h6.667"/></symbol><symbol id="icon-moon" viewBox="0 0 32 32"><path d="M16 27.333q1.867 0 3.867-.767t3.8-2.267q-3.267-1.133-5.633-3.05t-3.75-4.433-1.767-5.5.317-6.217q-3.7 1.367-5.933 4.217t-2.233 6.683q0 4.8 3.267 8.067t8.067 3.267zm0 2q-2.8 0-5.233-1.033t-4.233-2.833-2.833-4.233-1.033-5.233q0-4.8 3.15-8.55t7.85-4.583q.867-.167 1.267.383t.1 1.45q-.9 2.833-.6 5.767t1.667 5.433 3.717 4.317 5.517 2.383q.933.167 1.183.733t-.317 1.233q-1.9 2.1-4.6 3.433t-5.6 1.333z"/></symbol><symbol id="icon-sun" viewBox="0 0 32 32"><path d="M15 5V1.333h2V5zm0 25.667V27h2v3.667zM27 17v-2h3.667v2zM1.333 17v-2H5v2zm23.4-8.333L23.3 7.234l2.2-2.2 1.433 1.433zM6.5 26.967l-1.433-1.433 2.2-2.2L8.7 24.767zm19 0-2.2-2.2 1.433-1.433 2.2 2.2zM7.267 8.667l-2.2-2.2L6.5 5.034l2.2 2.2zM16 23.5q-3.133 0-5.317-2.183T8.5 16t2.183-5.317T16 8.5t5.317 2.183T23.5 16t-2.183 5.317T16 23.5zm0-2q2.3 0 3.9-1.6t1.6-3.9-1.6-3.9-3.9-1.6-3.9 1.6-1.6 3.9 1.6 3.9 3.9 1.6z"/></symbol></defs></svg>