<svg width="24" height="24" viewBox="0 0 24 24" fill="none" xmlns="http://www.w3.org/2000/svg">
<path fill-rule="evenodd" clip-rule="evenodd" d="M0 3.46909V20.5309C0 22.4468 1.55316 24 3.46909 24H20.5309C22.4468 24 24 22.4468 24 20.5309V3.46909C24 1.55316 22.4468 0 20.5309 0H3.46909C1.55316 0 0 1.55316 0 3.46909ZM2.18182 3.46909C2.18182 2.75815 2.75815 2.18182 3.46909 2.18182H5.45455V5.45455H2.18182V3.46909ZM2.18182 7.63636H5.45455V10.9091H2.18182V7.63636ZM21.8182 5.45455V3.46909C21.8182 2.75815 21.2419 2.18182 20.5309 2.18182H18.5455V5.45455H21.8182ZM18.5455 7.63636H21.8182V10.9091H18.5455V7.63636ZM16.3636 2.18182H7.63636V10.9091H16.3636V2.18182ZM21.8182 13.0909V16.3636H18.5455V13.0909H21.8182ZM21.8182 18.5455H18.5455V21.8182H20.5309C21.2418 21.8182 21.8182 21.2418 21.8182 20.5309V18.5455ZM16.3636 13.0909V21.8182H7.63636V13.0909H16.3636ZM2.18182 18.5455V20.5309C2.18182 21.2419 2.75815 21.8182 3.46909 21.8182H5.45455V18.5455H2.18182ZM5.45455 16.3636H2.18182V13.0909H5.45455V16.3636Z" fill="white"/>
</svg>
