<svg width="163" height="24" viewBox="0 0 163 24" fill="none" xmlns="http://www.w3.org/2000/svg">
<path d="M61.0264 23H57.4668V0.5H61.0264V23Z" fill="white"/>
<path d="M49.791 23H53.3506V7.15039H49.791V23Z" fill="white"/>
<path d="M50.084 1.67188C49.7422 2.0332 49.5713 2.4873 49.5713 3.03418C49.5713 3.57129 49.7422 4.02051 50.084 4.38184C50.4355 4.7334 50.9336 4.90918 51.5781 4.90918C52.2227 4.90918 52.7207 4.7334 53.0723 4.38184C53.4238 4.02051 53.5996 3.57129 53.5996 3.03418C53.5996 2.4873 53.4238 2.0332 53.0723 1.67188C52.7207 1.31055 52.2227 1.12988 51.5781 1.12988C50.9336 1.12988 50.4355 1.31055 50.084 1.67188Z" fill="white"/>
<path d="M37.1201 13.9619H45.7041V11.0029H37.1201V4.66016H46.9639V1.67188H33.4141V23H37.1201V13.9619Z" fill="white"/>
<path d="M68.3652 8.80566L68.2627 7.15039H64.9082V23H68.4678V11.5156C69.0635 10.3535 70.0742 9.77246 71.5 9.77246C73.3555 9.77246 74.3076 10.7051 74.3564 12.5703V23H77.916L77.9014 12.1309C78.1064 11.4277 78.4629 10.8613 78.9707 10.4316C79.4883 9.99219 80.1523 9.77246 80.9629 9.77246C81.9785 9.77246 82.7061 10.0068 83.1455 10.4756C83.585 10.9443 83.8047 11.6816 83.8047 12.6875V23H87.3643V12.585C87.3447 10.7002 86.9053 9.27441 86.0459 8.30762C85.1963 7.34082 83.8975 6.85742 82.1494 6.85742C80.0596 6.85742 78.4385 7.66797 77.2861 9.28906C76.5049 7.66797 75.0547 6.85742 72.9355 6.85742C71.002 6.85742 69.4785 7.50684 68.3652 8.80566Z" fill="white"/>
<path fill-rule="evenodd" clip-rule="evenodd" d="M90.3525 14.9287C90.3525 13.376 90.6602 11.9795 91.2754 10.7393C91.8906 9.48926 92.7549 8.53223 93.8682 7.86816C94.9814 7.19434 96.2607 6.85742 97.7061 6.85742C99.8447 6.85742 101.578 7.5459 102.906 8.92285C104.244 10.2998 104.967 12.126 105.074 14.4014L105.089 15.2363C105.089 16.7988 104.786 18.1953 104.181 19.4258C103.585 20.6562 102.726 21.6084 101.603 22.2822C100.489 22.9561 99.2002 23.293 97.7354 23.293C95.499 23.293 93.707 22.5508 92.3594 21.0664C91.0215 19.5723 90.3525 17.585 90.3525 15.1045V14.9287ZM93.9121 15.2363C93.9121 16.8672 94.249 18.1465 94.9229 19.0742C95.5967 19.9922 96.5342 20.4512 97.7354 20.4512C98.9365 20.4512 99.8691 19.9824 100.533 19.0449C101.207 18.1074 101.544 16.7354 101.544 14.9287C101.544 13.3271 101.197 12.0576 100.504 11.1201C99.8203 10.1826 98.8877 9.71387 97.7061 9.71387C96.5439 9.71387 95.6211 10.1777 94.9375 11.1055C94.2539 12.0234 93.9121 13.4004 93.9121 15.2363Z" fill="white"/>
<path d="M112.56 7.15039V3.29785H109V7.15039H106.393V9.78711H109V18.7666C109 21.7842 110.367 23.293 113.102 23.293C113.854 23.293 114.635 23.1807 115.445 22.9561V20.2021C115.025 20.2998 114.61 20.3486 114.2 20.3486C113.585 20.3486 113.155 20.2168 112.911 19.9531C112.677 19.6797 112.56 19.2402 112.56 18.6348V9.78711H115.357V7.15039H112.56Z" fill="white"/>
<path fill-rule="evenodd" clip-rule="evenodd" d="M125.069 23.293C122.813 23.293 120.982 22.585 119.576 21.1689C118.18 19.7432 117.481 17.8486 117.481 15.4854V15.0459C117.481 13.4639 117.784 12.0527 118.39 10.8125C119.005 9.5625 119.864 8.59082 120.968 7.89746C122.071 7.2041 123.302 6.85742 124.659 6.85742C126.817 6.85742 128.482 7.5459 129.654 8.92285C130.836 10.2998 131.427 12.248 131.427 14.7676V16.2031H121.07C121.178 17.5117 121.612 18.5469 122.374 19.3086C123.146 20.0703 124.112 20.4512 125.274 20.4512C126.905 20.4512 128.233 19.792 129.259 18.4736L131.178 20.3047C130.543 21.252 129.693 21.9893 128.629 22.5166C127.574 23.0342 126.388 23.293 125.069 23.293ZM124.645 9.71387C123.668 9.71387 122.877 10.0557 122.271 10.7393C121.676 11.4229 121.295 12.375 121.129 13.5957H127.911V13.332C127.833 12.1406 127.516 11.2422 126.959 10.6367C126.402 10.0215 125.631 9.71387 124.645 9.71387Z" fill="white"/>
<path d="M137.77 17.8291L139.352 16.2031L144.054 23H148.17L141.651 13.7568L147.54 7.15039H143.263L138.883 12.0869L137.77 13.4785V0.5H134.21V23H137.77V17.8291Z" fill="white"/>
<path fill-rule="evenodd" clip-rule="evenodd" d="M159.347 23C159.19 22.6973 159.054 22.2041 158.937 21.5205C157.804 22.7021 156.417 23.293 154.776 23.293C153.185 23.293 151.886 22.8389 150.88 21.9307C149.874 21.0225 149.371 19.8994 149.371 18.5615C149.371 16.8721 149.996 15.5781 151.246 14.6797C152.506 13.7715 154.303 13.3174 156.637 13.3174H158.819V12.2773C158.819 11.457 158.59 10.8027 158.131 10.3145C157.672 9.81641 156.974 9.56738 156.036 9.56738C155.226 9.56738 154.562 9.77246 154.044 10.1826C153.526 10.583 153.268 11.0957 153.268 11.7207H149.708C149.708 10.8516 149.996 10.041 150.572 9.28906C151.148 8.52734 151.93 7.93164 152.916 7.50195C153.912 7.07227 155.021 6.85742 156.241 6.85742C158.097 6.85742 159.576 7.32617 160.68 8.26367C161.783 9.19141 162.35 10.5 162.379 12.1895V19.3379C162.379 20.7637 162.579 21.9014 162.979 22.751V23H159.347ZM155.436 20.4365C156.139 20.4365 156.798 20.2656 157.413 19.9238C158.038 19.582 158.507 19.123 158.819 18.5469V15.5586H156.9C155.582 15.5586 154.591 15.7881 153.927 16.2471C153.263 16.7061 152.931 17.3555 152.931 18.1953C152.931 18.8789 153.155 19.4258 153.604 19.8359C154.063 20.2363 154.674 20.4365 155.436 20.4365Z" fill="white"/>
<path fill-rule="evenodd" clip-rule="evenodd" d="M3.18 1C1.42373 1 0 2.42373 0 4.18V19.82C0 21.5763 1.42373 23 3.18 23H18.82C20.5763 23 22 21.5763 22 19.82V4.18C22 2.42373 20.5763 1 18.82 1H3.18ZM3.18 3C2.5283 3 2 3.5283 2 4.18V6H5V3H3.18ZM2 11V8H5V11H2ZM7 11V3H15V11H7ZM17 8V11H20V8H17ZM17 6V3H18.82C19.4717 3 20 3.5283 20 4.18V6H17ZM20 13V16H17V13H20ZM17 18H20V19.82C20 20.4717 19.4717 21 18.82 21H17V18ZM15 13V21H7V13H15ZM5 18H2V19.82C2 20.4717 2.5283 21 3.18 21H5V18ZM5 16V13H2V16H5Z" fill="white"/>
</svg>
