<svg width="12" height="12" viewBox="0 0 12 12" fill="none" xmlns="http://www.w3.org/2000/svg">
<path d="M6.53033 1.28033C6.82322 0.987437 6.82322 0.512563 6.53033 0.21967C6.23744 -0.0732233 5.76256 -0.0732233 5.46967 0.21967L0.21967 5.46967C0.0755117 5.61383 0.00230628 5.80207 5.38098e-05 5.991C1.66073e-05 5.99412 -1.42043e-06 5.99725 8.72938e-08 6.00037C8.72938e-08 6.21458 0.0898086 6.40782 0.233828 6.54449L5.46967 11.7803C5.76256 12.0732 6.23744 12.0732 6.53033 11.7803C6.82322 11.4874 6.82322 11.0126 6.53033 10.7197L2.56103 6.75037H11.25C11.6642 6.75037 12 6.41458 12 6.00037C12 5.58615 11.6642 5.25037 11.25 5.25037H2.56029L6.53033 1.28033Z" fill="black"/>
</svg>
