<svg width="13" height="13" viewBox="0 0 13 13" fill="none" xmlns="http://www.w3.org/2000/svg">
<path d="M6.13634 1.94732C5.84345 1.65443 5.84345 1.17956 6.13634 0.886662C6.42923 0.593769 6.90411 0.593769 7.197 0.886662L12.437 6.12668C12.5786 6.2631 12.6667 6.45467 12.6667 6.66681C12.6667 6.74165 12.6557 6.81393 12.6353 6.88213C12.6009 6.9975 12.5381 7.10622 12.447 7.19732L7.197 12.4473C6.90411 12.7402 6.42923 12.7402 6.13634 12.4473C5.84345 12.1544 5.84345 11.6796 6.13634 11.3867L10.1062 7.41681H1.41667C1.00245 7.41681 0.666668 7.08102 0.666668 6.66681C0.666668 6.2526 1.00245 5.91681 1.41667 5.91681H10.1058L6.13634 1.94732Z" fill="black"/>
</svg>
