<svg width="12" height="12" viewBox="0 0 12 12" fill="none" xmlns="http://www.w3.org/2000/svg">
<path fill-rule="evenodd" clip-rule="evenodd" d="M8.77049 9.61908C7.84671 10.358 6.67497 10.7998 5.40003 10.7998C2.41767 10.7998 0 8.38217 0 5.39989C0 2.41762 2.41767 0 5.40003 0C8.38238 0 10.8001 2.41762 10.8001 5.39989C10.8001 6.67495 10.3581 7.84679 9.61906 8.7706L11.8243 10.9758C12.0586 11.2101 12.0586 11.59 11.8243 11.8243C11.5899 12.0586 11.21 12.0586 10.9757 11.8243L8.77049 9.61908ZM1.20001 5.39989C1.20001 3.08034 3.08042 1.19998 5.40003 1.19998C7.71963 1.19998 9.60005 3.08034 9.60005 5.39989C9.60005 6.53181 9.15226 7.55914 8.42417 8.31441C8.40386 8.33006 8.38433 8.34719 8.36572 8.36581C8.34712 8.38441 8.33 8.40392 8.31435 8.42421C7.55908 9.15214 6.53184 9.59981 5.40003 9.59981C3.08042 9.59981 1.20001 7.71945 1.20001 5.39989Z" fill="white"/>
</svg>
